<?xml version="1.0" encoding="UTF-8" standalone="no"?>
<svg
   width="24"
   height="24"
   id="svg4428"
   version="1.1"
   inkscape:version="1.2.2 (b0a8486541, 2022-12-01)"
   sodipodi:docname="close.svg"
   xmlns:inkscape="http://www.inkscape.org/namespaces/inkscape"
   xmlns:sodipodi="http://sodipodi.sourceforge.net/DTD/sodipodi-0.dtd"
   xmlns:xlink="http://www.w3.org/1999/xlink"
   xmlns="http://www.w3.org/2000/svg"
   xmlns:svg="http://www.w3.org/2000/svg">
  <defs
     id="defs3">
    <style
       id="current-color-scheme"
       type="text/css">.ColorScheme-Text {
        color:#e0e0e0;
        stop-color:#e0e0e0;
      }
      .ColorScheme-Background {
        color:#2c2c2c;
        stop-color:#2c2c2c;
      }
      .ColorScheme-HeaderBackground {
        color:#242424;
        stop-color:#242424;
      }
      .ColorScheme-Highlight {
        color:#e0e0e0;
        stop-color:#e0e0e0;
      }</style>
  </defs>
  <sodipodi:namedview
     id="base"
     pagecolor="#949494"
     bordercolor="#666666"
     borderopacity="1.0"
     inkscape:pageopacity="1"
     inkscape:pageshadow="2"
     inkscape:zoom="12.239342"
     inkscape:cx="29.576752"
     inkscape:cy="21.079564"
     inkscape:document-units="px"
     inkscape:current-layer="layer1"
     showgrid="false"
     inkscape:snap-bbox="true"
     inkscape:window-width="1920"
     inkscape:window-height="1000"
     inkscape:window-x="0"
     inkscape:window-y="0"
     inkscape:window-maximized="1"
     showborder="true"
     inkscape:showpageshadow="false"
     inkscape:snap-nodes="false"
     inkscape:bbox-nodes="true"
     inkscape:snap-bbox-edge-midpoints="false"
     inkscape:snap-global="true"
     inkscape:pagecheckerboard="0"
     inkscape:deskcolor="#949494">
    <inkscape:grid
       type="xygrid"
       id="grid4436"
       empspacing="5"
       visible="true"
       enabled="true"
       snapvisiblegridlinesonly="true"
       originx="0"
       originy="0"
       spacingx="1"
       spacingy="1" />
  </sodipodi:namedview>
  <g
     inkscape:label="Layer 1"
     inkscape:groupmode="layer"
     id="layer1"
     transform="translate(0,-1098.5197)">
    <use
       x="0"
       y="0"
       xlink:href="#inactive-center"
       id="deactivated-center"
       transform="translate(33,-0.96494)"
       width="100%"
       height="100%" />
    <use
       height="100%"
       width="100%"
       transform="translate(63,-0.96494)"
       id="deactivated-inactive-center"
       xlink:href="#inactive-center"
       y="0"
       x="0" />
    <g
       id="active-center"
       transform="translate(-61,507.15764)">
      <g
         id="headerbar-bg" />
      <circle
         style="opacity:0.06;fill:#ffffff;fill-opacity:1;stroke-width:11;stroke-linecap:round;stroke-linejoin:round;paint-order:stroke fill markers"
         id="path2409"
         cx="37"
         cy="602.36206"
         r="11" />
      <path
         d="m 33.46475,598.327 c -0.12775,0 -0.2555,0.0486 -0.35339,0.14649 -0.19578,0.19586 -0.19578,0.51116 0,0.70703 l 3.1816,3.1816 -3.1816,3.1816 c -0.19578,0.19586 -0.19578,0.51116 0,0.70703 0.19578,0.19586 0.51118,0.19586 0.70704,0 l 3.1816,-3.1816 3.1816,3.1816 c 0.19578,0.19586 0.51114,0.19586 0.70704,0 0.19578,-0.19586 0.19578,-0.51116 0,-0.70703 l -3.1816,-3.1816 3.1816,-3.1816 c 0.19578,-0.19586 0.19578,-0.51116 0,-0.70703 -0.19578,-0.19586 -0.51118,-0.19586 -0.70704,0 l -3.1816,3.1816 -3.1816,-3.1816 c -0.09789,-0.0979 -0.22564,-0.14649 -0.35339,-0.14649 z"
         style="opacity:0.65;fill:#ffffff;paint-order:stroke fill markers"
         id="path1594" />
    </g>
    <g
       id="hover-center">
      <circle
         style="fill:#31c4b6;fill-opacity:1;stroke-width:11;stroke-linecap:round;stroke-linejoin:round;paint-order:stroke fill markers"
         id="circle1156"
         cx="12"
         cy="1110.5197"
         r="11" />
      <path
         d="m 8.4647502,1106.4846 c -0.12775,0 -0.2555,0.049 -0.35339,0.1465 -0.19578,0.1958 -0.19578,0.5111 0,0.707 l 3.1815998,3.1816 -3.1815998,3.1816 c -0.19578,0.1959 -0.19578,0.5112 0,0.707 0.19578,0.1959 0.51118,0.1959 0.70704,0 L 12,1111.2267 l 3.1816,3.1816 c 0.19578,0.1959 0.51114,0.1959 0.70704,0 0.19578,-0.1958 0.19578,-0.5111 0,-0.707 l -3.1816,-3.1816 3.1816,-3.1816 c 0.19578,-0.1959 0.19578,-0.5112 0,-0.707 -0.19578,-0.1959 -0.51118,-0.1959 -0.70704,0 L 12,1109.8127 8.8184002,1106.6311 c -0.09789,-0.098 -0.22564,-0.1465 -0.35339,-0.1465 z"
         id="path2869-3"
         style="fill:#fafafa;paint-order:stroke fill markers" />
    </g>
    <use
       x="0"
       y="0"
       xlink:href="#headerbar-bg"
       id="use1845"
       transform="translate(17,508.15764)"
       width="100%"
       height="100%" />
    <g
       id="pressed-center">
      <circle
         style="fill:#31c4b6;fill-opacity:1;stroke-width:11;stroke-linecap:round;stroke-linejoin:round;paint-order:stroke fill markers"
         id="circle1160"
         cx="54"
         cy="1110.5197"
         r="11" />
      <circle
         style="opacity:0.15;fill:#000000;fill-opacity:1;stroke-width:11;stroke-linecap:round;stroke-linejoin:round;paint-order:stroke fill markers"
         id="circle1164"
         cx="54"
         cy="1110.5197"
         r="11" />
      <path
         d="m 50.46475,1106.4846 c -0.12775,0 -0.2555,0.049 -0.35339,0.1465 -0.19578,0.1959 -0.19578,0.5112 0,0.7071 l 3.1816,3.1816 -3.1816,3.1816 c -0.19578,0.1958 -0.19578,0.5111 0,0.707 0.19578,0.1959 0.51118,0.1959 0.70704,0 l 3.1816,-3.1816 3.1816,3.1816 c 0.19578,0.1959 0.51114,0.1959 0.70704,0 0.19578,-0.1959 0.19578,-0.5112 0,-0.707 l -3.1816,-3.1816 3.1816,-3.1816 c 0.19578,-0.1959 0.19578,-0.5112 0,-0.7071 -0.19578,-0.1958 -0.51118,-0.1958 -0.70704,0 l -3.1816,3.1816 -3.1816,-3.1816 c -0.0979,-0.098 -0.22564,-0.1465 -0.35339,-0.1465 z"
         style="fill:#fafafa;paint-order:stroke fill markers"
         id="path1162" />
    </g>
    <g
       id="inactive-center"
       transform="translate(56,508.15764)"
       style="opacity:0.5">
      <g
         id="g6456" />
      <circle
         style="opacity:0.06;fill:#ffffff;fill-opacity:1;stroke-width:11;stroke-linecap:round;stroke-linejoin:round;paint-order:stroke fill markers"
         id="circle6458"
         cx="37"
         cy="602.36206"
         r="11" />
      <path
         d="m 33.46475,598.327 c -0.12775,0 -0.2555,0.0486 -0.35339,0.14649 -0.19578,0.19586 -0.19578,0.51116 0,0.70703 l 3.1816,3.1816 -3.1816,3.1816 c -0.19578,0.19586 -0.19578,0.51116 0,0.70703 0.19578,0.19586 0.51118,0.19586 0.70704,0 l 3.1816,-3.1816 3.1816,3.1816 c 0.19578,0.19586 0.51114,0.19586 0.70704,0 0.19578,-0.19586 0.19578,-0.51116 0,-0.70703 l -3.1816,-3.1816 3.1816,-3.1816 c 0.19578,-0.19586 0.19578,-0.51116 0,-0.70703 -0.19578,-0.19586 -0.51118,-0.19586 -0.70704,0 l -3.1816,3.1816 -3.1816,-3.1816 c -0.09789,-0.0979 -0.22564,-0.14649 -0.35339,-0.14649 z"
         style="opacity:0.65;fill:#ffffff;paint-order:stroke fill markers"
         id="path6460" />
    </g>
    <g
       id="hover-inactive-center"
       transform="translate(-61,542.15764)">
      <g
         id="g6466" />
      <circle
         style="opacity:0.15;fill:#ffffff;fill-opacity:1;stroke-width:11;stroke-linecap:round;stroke-linejoin:round;paint-order:stroke fill markers"
         id="circle6468"
         cx="37"
         cy="602.36206"
         r="11" />
      <path
         d="m 33.46475,598.327 c -0.12775,0 -0.2555,0.0486 -0.35339,0.14649 -0.19578,0.19586 -0.19578,0.51116 0,0.70703 l 3.1816,3.1816 -3.1816,3.1816 c -0.19578,0.19586 -0.19578,0.51116 0,0.70703 0.19578,0.19586 0.51118,0.19586 0.70704,0 l 3.1816,-3.1816 3.1816,3.1816 c 0.19578,0.19586 0.51114,0.19586 0.70704,0 0.19578,-0.19586 0.19578,-0.51116 0,-0.70703 l -3.1816,-3.1816 3.1816,-3.1816 c 0.19578,-0.19586 0.19578,-0.51116 0,-0.70703 -0.19578,-0.19586 -0.51118,-0.19586 -0.70704,0 l -3.1816,3.1816 -3.1816,-3.1816 c -0.09789,-0.0979 -0.22564,-0.14649 -0.35339,-0.14649 z"
         style="opacity:1;fill:#ffffff;paint-order:stroke fill markers"
         id="path6470" />
    </g>
  </g>
</svg>
