<?xml version="1.0" encoding="UTF-8" standalone="no"?>
<svg
   width="24"
   height="24"
   id="svg4428"
   version="1.1"
   inkscape:version="1.2.2 (b0a8486541, 2022-12-01)"
   sodipodi:docname="maximize.svg"
   xmlns:inkscape="http://www.inkscape.org/namespaces/inkscape"
   xmlns:sodipodi="http://sodipodi.sourceforge.net/DTD/sodipodi-0.dtd"
   xmlns:xlink="http://www.w3.org/1999/xlink"
   xmlns="http://www.w3.org/2000/svg"
   xmlns:svg="http://www.w3.org/2000/svg">
  <defs
     id="defs3">
    <style
       id="current-color-scheme"
       type="text/css">.ColorScheme-Text {
        color:#e0e0e0;
        stop-color:#e0e0e0;
      }
      .ColorScheme-Background {
        color:#2c2c2c;
        stop-color:#2c2c2c;
      }
      .ColorScheme-HeaderBackground {
        color:#242424;
        stop-color:#242424;
      }
      .ColorScheme-Highlight {
        color:#e0e0e0;
        stop-color:#e0e0e0;
      }</style>
  </defs>
  <sodipodi:namedview
     id="base"
     pagecolor="#42474c"
     bordercolor="#666666"
     borderopacity="1.0"
     inkscape:pageopacity="1"
     inkscape:pageshadow="2"
     inkscape:zoom="2.3143028"
     inkscape:cx="-49.042848"
     inkscape:cy="-2.3765257"
     inkscape:document-units="px"
     inkscape:current-layer="layer1"
     showgrid="true"
     inkscape:snap-bbox="true"
     inkscape:window-width="1920"
     inkscape:window-height="1004"
     inkscape:window-x="0"
     inkscape:window-y="0"
     inkscape:window-maximized="1"
     showborder="true"
     inkscape:showpageshadow="false"
     inkscape:pagecheckerboard="0"
     inkscape:deskcolor="#474c52">
    <inkscape:grid
       type="xygrid"
       id="grid4436"
       empspacing="5"
       visible="true"
       enabled="true"
       snapvisiblegridlinesonly="true"
       originx="0"
       originy="0"
       spacingx="1"
       spacingy="1" />
  </sodipodi:namedview>
  <g
     inkscape:label="Layer 1"
     inkscape:groupmode="layer"
     id="layer1"
     transform="translate(0,-1098.5197)">
    <use
       x="0"
       y="0"
       xlink:href="#inactive-center"
       id="deactivated-center"
       transform="translate(30)"
       width="100%"
       height="100%" />
    <use
       height="100%"
       width="100%"
       transform="translate(58.923121)"
       id="deactivated-inactive-center"
       xlink:href="#inactive-center"
       y="0"
       x="0" />
    <g
       id="active-center">
      <circle
         style="opacity:0.06;fill:#ffffff;fill-opacity:1;stroke-width:11;stroke-linecap:round;stroke-linejoin:round;paint-order:stroke fill markers"
         id="circle1168"
         cx="-24"
         cy="1109.5197"
         r="11" />
      <path
         d="m -25.999999,1105.5198 c -1.108,0 -2,0.892 -2,2 v 4 c 0,1.108 0.89201,2 2,2 h 4 c 1.108,0 2,-0.892 2,-2 v -4 c 0,-1.108 -0.89201,-2 -2,-2 z m 0,1 h 4 c 0.554,0 1,0.4461 1,1 v 4 c 0,0.554 -0.44602,1 -1,1 h -4 c -0.55397,0 -0.99999,-0.446 -0.99999,-1 v -4 c 0,-0.5539 0.44602,-1 0.99999,-1 z"
         style="opacity:0.65;fill:#ffffff;paint-order:stroke fill markers"
         id="path1596" />
    </g>
    <g
       id="hover-center">
      <circle
         style="fill:#6a58f0;fill-opacity:1;stroke-width:11;stroke-linecap:round;stroke-linejoin:round;paint-order:stroke fill markers"
         id="circle1172"
         cx="12"
         cy="1110.5197"
         r="11" />
      <path
         d="m 10,1106.5197 c -1.108,0 -2,0.892 -2,2 v 4 c 0,1.108 0.89201,2 2,2 h 4 c 1.108,0 2,-0.892 2,-2 v -4 c 0,-1.108 -0.89201,-2 -2,-2 z m 0,1 h 4 c 0.554,0 1,0.446 1,1 v 4 c 0,0.554 -0.44602,1 -1,1 h -4 c -0.55397,0 -0.99999,-0.446 -0.99999,-1 v -4 c 0,-0.554 0.44602,-1 0.99999,-1 z"
         style="fill:#fafafa;paint-order:stroke fill markers"
         id="path2878-6" />
    </g>
    <g
       id="hover-inactive-center"
       transform="translate(0,30.000047)">
      <circle
         style="opacity:0.15;fill:#ffffff;fill-opacity:1;stroke-width:11;stroke-linecap:round;stroke-linejoin:round;paint-order:stroke fill markers"
         id="circle8018"
         cx="-24"
         cy="1109.5197"
         r="11" />
      <path
         d="m -25.999999,1105.5198 c -1.108,0 -2,0.892 -2,2 v 4 c 0,1.108 0.89201,2 2,2 h 4 c 1.108,0 2,-0.892 2,-2 v -4 c 0,-1.108 -0.89201,-2 -2,-2 z m 0,1 h 4 c 0.554,0 1,0.4461 1,1 v 4 c 0,0.554 -0.44602,1 -1,1 h -4 c -0.55397,0 -0.99999,-0.446 -0.99999,-1 v -4 c 0,-0.5539 0.44602,-1 0.99999,-1 z"
         style="opacity:1;fill:#ffffff;paint-order:stroke fill markers"
         id="path8020" />
    </g>
    <g
       id="use1853-7"
       transform="translate(16,505.15761)" />
    <g
       id="pressed-center">
      <circle
         style="fill:#6a58f0;fill-opacity:1;stroke-width:11;stroke-linecap:round;stroke-linejoin:round;paint-order:stroke fill markers"
         id="circle1176"
         cx="51"
         cy="1110.5197"
         r="11" />
      <circle
         style="opacity:0.15;fill:#000000;fill-opacity:1;stroke-width:11;stroke-linecap:round;stroke-linejoin:round;paint-order:stroke fill markers"
         id="circle1178"
         cx="51"
         cy="1110.5197"
         r="11" />
      <path
         d="m 49,1106.5197 c -1.108,0 -2,0.892 -2,2 v 4 c 0,1.108 0.89201,2 2,2 h 4 c 1.10801,0 2,-0.892 2,-2 v -4 c 0,-1.108 -0.89201,-2 -2,-2 z m 0,1 h 4 c 0.554,0 1,0.446 1,1 v 4 c 0,0.554 -0.44602,1 -1,1 h -4 c -0.55397,0 -0.99999,-0.446 -0.99999,-1 v -4 c 0,-0.554 0.44603,-1 0.99999,-1 z"
         style="fill:#fafafa;paint-order:stroke fill markers"
         id="path2930-5" />
    </g>
    <g
       id="inactive-center"
       style="opacity:0.5"
       transform="translate(0,1.0000467)">
      <circle
         style="opacity:0.06;fill:#ffffff;fill-opacity:1;stroke-width:11;stroke-linecap:round;stroke-linejoin:round;paint-order:stroke fill markers"
         id="circle8143"
         cx="86"
         cy="1109.5197"
         r="11" />
      <path
         d="m 84.000001,1105.5198 c -1.108,0 -2,0.892 -2,2 v 4 c 0,1.108 0.89201,2 2,2 h 4 c 1.108,0 2,-0.892 2,-2 v -4 c 0,-1.108 -0.89201,-2 -2,-2 z m 0,1 h 4 c 0.554,0 1,0.4461 1,1 v 4 c 0,0.554 -0.44602,1 -1,1 h -4 c -0.55397,0 -0.99999,-0.446 -0.99999,-1 v -4 c 0,-0.5539 0.44602,-1 0.99999,-1 z"
         style="opacity:0.65;fill:#ffffff;paint-order:stroke fill markers"
         id="path8145" />
    </g>
  </g>
</svg>
